<svg width="425" height="106" viewBox="0 0 425 106" fill="none" xmlns="http://www.w3.org/2000/svg">
<path d="M374.882 75.2134V29.9482H384.7V47.1756H384.859C385.831 45.4266 387.245 44.0462 389.103 43.0347C390.983 42.0021 393.062 41.4858 395.343 41.4858C398.933 41.4858 401.772 42.5817 403.863 44.7732C405.953 46.9438 406.999 49.873 406.999 53.5607V75.2134H396.99V56.0263C396.99 54.0876 396.505 52.5704 395.533 51.4745C394.562 50.3577 393.157 49.7992 391.32 49.7992C389.505 49.7992 387.985 50.4841 386.759 51.8538C385.535 53.2026 384.922 54.8989 384.922 56.943V75.2134H374.882Z" fill="white"/>
<path d="M366.251 76.1616C362.852 76.1616 360.18 75.2661 358.238 73.4748C356.316 71.6625 355.355 68.9335 355.355 65.2878V33.8677H365.364V63.9918C365.364 65.467 365.67 66.5418 366.283 67.216C366.895 67.8904 367.793 68.2275 368.975 68.2275C369.46 68.2275 369.925 68.1855 370.368 68.1011C370.811 68.0168 371.34 67.8694 371.953 67.6586C372.586 67.4479 372.902 67.3425 372.902 67.3425V74.9604C372.902 74.9604 372.491 75.0869 371.668 75.3397C370.844 75.5926 369.999 75.7928 369.134 75.9403C368.268 76.0879 367.307 76.1616 366.251 76.1616ZM355.355 50.21V42.4024H372.84V50.21H355.355Z" fill="white"/>
<path d="M343 74.8821V45.8821H353V74.8821H343Z" fill="white"/>
<path d="M287.067 75.2134V42.4025H296.728V48.3451L295.809 47.144H296.854C297.804 45.4371 299.198 44.0674 301.035 43.0347C302.872 41.9811 304.942 41.4542 307.243 41.4542C309.523 41.4542 311.561 42.0022 313.357 43.0979C315.172 44.1938 316.439 45.6689 317.158 47.5233C318.488 45.4582 320.103 43.9304 322.004 42.9399C323.904 41.9495 325.994 41.4542 328.274 41.4542C332.033 41.4542 334.926 42.5606 336.954 44.7732C338.981 46.9649 339.993 49.9994 339.993 53.8769V75.2134H329.984V56.1844C329.984 54.0771 329.542 52.4966 328.655 51.4429C327.768 50.3682 326.448 49.8308 324.696 49.8308C322.986 49.8308 321.529 50.5052 320.325 51.8538C319.142 53.1814 318.55 54.8989 318.55 57.0062V75.2134H308.51V56.1844C308.51 54.1193 308.056 52.5492 307.149 51.4745C306.262 50.3787 304.952 49.8308 303.221 49.8308C301.489 49.8308 300.032 50.5052 298.85 51.8538C297.688 53.2026 297.108 54.92 297.108 57.0062V75.2134H287.067Z" fill="white"/>
<path d="M267.699 76.1618C264.722 76.1618 262.103 75.7508 259.844 74.929C257.585 74.1071 255.684 72.948 254.143 71.4519C252.601 69.9557 251.44 68.3436 250.659 66.6156C249.899 64.8875 249.519 64.0236 249.519 64.0236L258.419 60.5781C258.419 60.5781 258.662 61.1049 259.148 62.1586C259.633 63.2122 260.288 64.1605 261.111 65.0035C261.956 65.8464 262.958 66.5102 264.12 66.9949C265.281 67.4585 266.591 67.6903 268.048 67.6903C270.075 67.6903 271.7 67.2162 272.926 66.2679C274.15 65.3196 274.763 64.0341 274.763 62.4115C274.763 60.831 273.981 59.5666 272.419 58.6183C270.877 57.6489 268.248 56.6058 264.532 55.489C259.908 54.077 256.539 52.2858 254.428 50.1153C252.338 47.9447 251.293 45.2579 251.293 42.0548C251.293 38.2617 252.802 35.1428 255.822 32.6983C258.841 30.2328 262.79 29 267.668 29C270.286 29 272.587 29.3371 274.573 30.0115C276.578 30.6858 278.31 31.6868 279.767 33.0144C281.245 34.3209 282.333 35.6485 283.029 36.9973C283.747 38.3459 284.106 39.0203 284.106 39.0203L275.491 42.4341C275.491 42.4341 275.269 42.0759 274.826 41.3594C274.403 40.6218 273.833 39.937 273.116 39.3048C272.419 38.6514 271.605 38.1668 270.677 37.8507C269.747 37.5135 268.691 37.345 267.509 37.345C265.756 37.345 264.32 37.7243 263.202 38.4829C262.103 39.2416 261.555 40.2741 261.555 41.5807C261.555 42.7819 262.125 43.8038 263.265 44.6468C264.426 45.4897 267.139 46.5434 271.405 47.8078C276.24 49.2197 279.724 51.1163 281.857 53.4976C284.011 55.8577 285.088 58.7236 285.088 62.0954C285.088 66.3732 283.473 69.7871 280.242 72.337C277.011 74.8868 272.831 76.1618 267.699 76.1618Z" fill="white"/>
<path d="M213.076 84.1037V42.4025H222.579V48.598L220.456 46.4486H222.705C223.719 44.9735 225.165 43.7723 227.044 42.8451C228.924 41.9179 231.099 41.4542 233.569 41.4542C237.983 41.4542 241.635 43.0347 244.528 46.1957C247.421 49.3567 248.868 53.5081 248.868 58.6499C248.868 63.7497 247.4 67.9432 244.465 71.2306C241.53 74.518 237.813 76.1617 233.316 76.1617C231.162 76.1617 229.177 75.7403 227.361 74.8973C225.545 74.0545 224.141 72.9271 223.149 71.5151L223.117 71.5783V84.1037H213.076ZM231.004 67.6271C233.347 67.6271 235.29 66.8052 236.832 65.1615C238.394 63.4968 239.175 61.3579 239.175 58.7448C239.175 56.0895 238.394 53.9506 236.832 52.328C235.269 50.6843 233.327 49.8624 231.004 49.8624C228.66 49.8624 226.707 50.6948 225.144 52.3596C223.603 54.0033 222.832 56.1317 222.832 58.7448C222.832 61.3579 223.613 63.4968 225.176 65.1615C226.739 66.8052 228.681 67.6271 231.004 67.6271Z" fill="white"/>
<path d="M193.642 76.1617C188.468 76.1617 184.256 74.5286 181.004 71.2622C177.773 67.9959 176.158 63.8445 176.158 58.808C176.158 53.8136 177.773 49.6728 181.004 46.3853C184.256 43.0979 188.394 41.4542 193.42 41.4542C198.298 41.4542 202.278 42.9715 205.361 46.006C208.443 49.0195 209.985 52.8759 209.985 57.5752V60.9574H181.004V55.8367H200.927C200.778 53.919 200.04 52.3491 198.71 51.1268C197.379 49.9046 195.637 49.2934 193.483 49.2934C191.14 49.2934 189.207 50.1364 187.687 51.8222C186.188 53.5081 185.438 55.8051 185.438 58.7131C185.438 61.7477 186.283 64.1606 187.972 65.9518C189.661 67.7431 191.815 68.6386 194.434 68.6386C195.658 68.6386 196.746 68.4701 197.696 68.1329C198.646 67.7957 199.511 67.3321 200.293 66.742C201.074 66.131 201.929 65.1827 202.859 63.8971L209.162 68.0064C207.705 70.1559 206.258 71.7785 204.823 72.8743C203.407 73.9491 201.814 74.7604 200.04 75.3083C198.287 75.8772 196.154 76.1617 193.642 76.1617Z" fill="white"/>
<path d="M156.707 41.6279C161.584 41.6279 165.565 43.1448 168.648 46.1791C171.731 49.1926 173.273 53.0499 173.273 57.7492V61.1312H148.9C149.225 63.1357 150.01 64.8007 151.259 66.1253C152.948 67.9165 155.102 68.8118 157.721 68.8118C158.946 68.8118 160.033 68.6435 160.984 68.3064C161.934 67.9692 162.799 67.5054 163.581 66.9153C164.362 66.3043 165.217 65.356 166.145 64.0706L172.449 68.18C170.992 70.3294 169.545 71.9519 168.11 73.0476C166.695 74.1224 165.101 74.9336 163.327 75.4815C161.574 76.0505 159.441 76.3352 156.929 76.3352C151.756 76.3352 147.543 74.702 144.291 71.4357C142.317 69.4404 140.948 67.1143 140.18 64.4584C142.025 61.1253 142.949 57.2134 142.949 52.7224C142.949 51.2505 142.847 49.8413 142.647 48.4944C143.138 47.8194 143.687 47.1745 144.291 46.5593C147.543 43.2719 151.681 41.628 156.707 41.6279ZM156.771 49.4667C154.427 49.4667 152.494 50.3101 150.974 51.996C150.01 53.0808 149.357 54.4192 149.014 56.01H164.213C164.066 54.0925 163.327 52.5226 161.997 51.3005C160.667 50.0783 158.925 49.4668 156.771 49.4667Z" fill="white"/>
<path d="M101 75.2134V29.9482H117.565C124.491 29.9482 130.087 32.024 134.352 36.1754C138.617 40.3058 140.75 45.7637 140.75 52.5492C140.75 59.3769 138.617 64.8666 134.352 69.0179C130.087 73.1483 124.491 75.2134 117.565 75.2134H101ZM111.579 65.9518H117.027C120.975 65.9939 124.111 64.8454 126.434 62.5063C128.778 60.1461 129.95 56.8798 129.95 52.7073C129.95 48.5559 128.798 45.3106 126.497 42.9715C124.196 40.6113 121.038 39.4312 117.027 39.4312H111.579V65.9518Z" fill="white"/>
<circle cx="348" cy="38.8821" r="5" fill="white"/>
<path d="M62.12 79.2C67.0485 79.2 69.5127 79.2 71.3951 78.2409C73.051 77.3972 74.3972 76.0509 75.2409 74.3951C76.2 72.5127 76.2 70.0485 76.2 65.12V40.48C76.2 35.5515 76.2 33.0873 75.2409 31.2049C74.3972 29.5491 73.051 28.2028 71.3951 27.3591C69.5127 26.4 67.0485 26.4 62.12 26.4H37.48C32.5516 26.4 30.0873 26.4 28.2049 27.3591C26.5491 28.2028 25.2029 29.5491 24.3592 31.2049C23.4 33.0873 23.4 35.5515 23.4 40.48" stroke="white" stroke-width="9.35" stroke-linecap="round" stroke-linejoin="round"/>
<rect x="19" y="48.4" width="35.2" height="35.2" rx="6.6" fill="white"/>
<path d="M47.6 39.6H62.5285V54.5286" stroke="white" stroke-width="8.25" stroke-linecap="round" stroke-linejoin="round"/>
</svg>
